<?xml version="1.0" encoding="iso-8859-1"?>
<!-- Uploaded to: SVG Repo, www.svgrepo.com, Generator: SVG Repo Mixer Tools -->
<svg height="800px" width="800px" version="1.1" id="Layer_1" xmlns="http://www.w3.org/2000/svg" xmlns:xlink="http://www.w3.org/1999/xlink" 
	 viewBox="0 0 512 512" xml:space="preserve">
<path style="fill:#DB5E49;" d="M512,378.435v100.174C512,497.051,497.051,512,478.609,512H33.391C14.949,512,0,497.051,0,478.609
	V378.435c0-24.588,19.933-44.522,44.522-44.522H66.56V201.406c0-19.026,15.538-34.45,34.706-34.45H410.29
	c19.168,0,34.706,15.423,34.706,34.45v132.507h22.482C492.066,333.913,512,353.847,512,378.435z"/>
<path style="fill:#F77E41;" d="M512,378.435v22.261h-0.223h-44.522c-6.147,0-11.13,4.983-11.13,11.13v11.13
	c0,18.442-14.949,33.391-33.391,33.391l0,0c-18.442,0-33.391-14.949-33.391-33.391v-11.13c0-6.147-4.983-11.13-11.13-11.13h-22.261
	c-6.147,0-11.13,4.983-11.13,11.13v11.13c0,18.442-14.949,33.391-33.391,33.391l0,0c-18.442,0-33.391-14.949-33.391-33.391v-11.13
	c0-6.147-4.983-11.13-11.13-11.13h-22.261c-6.147,0-11.13,4.983-11.13,11.13v11.13c0,18.442-14.949,33.391-33.391,33.391l0,0
	c-18.442,0-33.391-14.949-33.391-33.391v-11.13c0-6.147-4.983-11.13-11.13-11.13h-22.261c-6.147,0-11.13,4.983-11.13,11.13v11.13
	c0,18.442-14.949,33.391-33.391,33.391l0,0c-18.442,0-33.391-14.949-33.391-33.391v-11.13c0-6.147-4.983-11.13-11.13-11.13h-33.28H0
	v-22.261c0-24.588,19.933-44.522,44.522-44.522h22.261V201.406c0-19.026,15.538-34.45,34.706-34.45h309.024
	c19.167,0,34.705,15.423,34.705,34.45v132.507h22.261C492.066,333.913,512,353.847,512,378.435z"/>
<path style="fill:#FF9B57;" d="M66.783,222.609v-21.202c0-19.026,15.538-34.45,34.706-34.45h309.024
	c19.167,0,34.705,15.423,34.705,34.45v21.202h-33.391c-6.147,0-11.13,4.983-11.13,11.13v11.13c0,18.442-14.949,33.391-33.391,33.391
	l0,0c-18.442,0-33.391-14.949-33.391-33.391v-11.13c0-6.147-4.983-11.13-11.13-11.13h-22.261c-6.147,0-11.13,4.983-11.13,11.13
	v11.13c0,18.442-14.949,33.391-33.391,33.391l0,0c-18.442,0-33.391-14.949-33.391-33.391v-11.13c0-6.147-4.983-11.13-11.13-11.13
	h-22.261c-6.147,0-11.13,4.983-11.13,11.13v11.13c0,18.442-14.949,33.391-33.391,33.391l0,0c-18.442,0-33.391-14.949-33.391-33.391
	v-11.13c0-6.147-4.983-11.13-11.13-11.13H66.783z"/>
<path style="fill:#FFDB80;" d="M445.217,233.739h-33.391v11.13c0,24.549-19.972,44.522-44.522,44.522s-44.522-19.972-44.522-44.522
	v-11.13h-22.261v11.13c0,24.549-19.972,44.522-44.522,44.522s-44.522-19.972-44.522-44.522v-11.13h-22.261v11.13
	c0,24.549-19.972,44.522-44.522,44.522s-44.522-19.972-44.522-44.522v-11.13H66.783v-22.261h33.391
	c12.275,0,22.261,9.986,22.261,22.261v11.13c0,12.275,9.986,22.261,22.261,22.261s22.261-9.986,22.261-22.261v-11.13
	c0-12.275,9.986-22.261,22.261-22.261h22.261c12.275,0,22.261,9.986,22.261,22.261v11.13c0,12.275,9.986,22.261,22.261,22.261
	s22.261-9.986,22.261-22.261v-11.13c0-12.275,9.986-22.261,22.261-22.261h22.261c12.275,0,22.261,9.986,22.261,22.261v11.13
	c0,12.275,9.986,22.261,22.261,22.261s22.261-9.986,22.261-22.261v-11.13c0-12.275,9.986-22.261,22.261-22.261h33.391l0,0V233.739
	L445.217,233.739z"/>
<path style="fill:#FFA583;" d="M512,378.435v22.261h-0.223h-44.522c-6.147,0-11.13,4.983-11.13,11.13v11.13
	c0,18.442-14.949,33.391-33.391,33.391l0,0c-18.442,0-33.391-14.949-33.391-33.391v-11.13c0-6.147-4.983-11.13-11.13-11.13h-22.261
	c-6.147,0-11.13,4.983-11.13,11.13v11.13c0,18.442-14.949,33.391-33.391,33.391l0,0c-18.442,0-33.391-14.949-33.391-33.391v-11.13
	c0-6.147-4.983-11.13-11.13-11.13h-22.261c-6.147,0-11.13,4.983-11.13,11.13v11.13c0,18.442-14.949,33.391-33.391,33.391l0,0
	c-18.442,0-33.391-14.949-33.391-33.391v-11.13c0-6.147-4.983-11.13-11.13-11.13h-22.261c-6.147,0-11.13,4.983-11.13,11.13v11.13
	c0,18.442-14.949,33.391-33.391,33.391l0,0c-18.442,0-33.391-14.949-33.391-33.391v-11.13c0-6.147-4.983-11.13-11.13-11.13h-33.28H0
	v-22.261c0-24.588,19.933-44.522,44.522-44.522h422.957C492.066,333.913,512,353.847,512,378.435z"/>
<path style="fill:#FFDDCF;" d="M506.379,411.826h-44.522v11.13c0,24.549-19.972,44.522-44.522,44.522s-44.522-19.972-44.522-44.522
	v-11.13h-22.261v11.13c0,24.549-19.972,44.522-44.522,44.522s-44.522-19.972-44.522-44.522v-11.13h-22.261v11.13
	c0,24.549-19.972,44.522-44.522,44.522s-44.522-19.972-44.522-44.522v-11.13h-22.261v11.13c0,24.549-19.972,44.522-44.522,44.522
	s-44.522-19.972-44.522-44.522v-11.13H5.621c-2.054,0-3.97-0.565-5.621-1.535V391.1c1.652-0.969,3.568-1.535,5.621-1.535h33.28
	c12.275,0,22.261,9.986,22.261,22.261v11.13c0,12.275,9.986,22.261,22.261,22.261s22.261-9.986,22.261-22.261v-11.13
	c0-12.275,9.986-22.261,22.261-22.261h22.261c12.275,0,22.261,9.986,22.261,22.261v11.13c0,12.275,9.986,22.261,22.261,22.261
	s22.261-9.986,22.261-22.261v-11.13c0-12.275,9.986-22.261,22.261-22.261h22.261c12.275,0,22.261,9.986,22.261,22.261v11.13
	c0,12.275,9.986,22.261,22.261,22.261s22.261-9.986,22.261-22.261v-11.13c0-12.275,9.986-22.261,22.261-22.261h22.261
	c12.275,0,22.261,9.986,22.261,22.261v11.13c0,12.275,9.986,22.261,22.261,22.261c12.275,0,22.261-9.986,22.261-22.261v-11.13
	c0-12.275,9.986-22.261,22.261-22.261h44.522c2.054,0,3.97,0.565,5.621,1.535v19.191
	C510.349,411.261,508.433,411.826,506.379,411.826z"/>
<path style="fill:#D89C44;" d="M255.777,122.583L255.777,122.583c-28.44,0-46.938-29.634-34.219-54.821l32.715-66.829
	c0.28-0.57,0.865-0.933,1.505-0.933l0,0c0.64,0,1.224,0.363,1.504,0.933l32.715,66.829
	C302.716,92.949,284.218,122.583,255.777,122.583z"/>
<path style="fill:#EAB250;" d="M292.373,72.946c-5.513,3.135-11.962,4.968-19.029,4.968l0,0c-21.945,0-37.953-17.645-38.285-37.275
	l19.437-39.704C254.776,0.363,255.36,0,256,0s1.224,0.363,1.504,0.933l32.715,66.829C291.083,69.473,291.79,71.205,292.373,72.946z"
	/>
</svg>