<svg height="512pt" preserveAspectRatio="xMidYMid meet" viewBox="0 0 512 512" width="512pt" xmlns="http://www.w3.org/2000/svg"><path d="m66557 112646c-133-315-653-2120-1156-4011-1567-5892-3617-8958-6662-9963-491-162-1544-677-2340-1144-795-467-2499-1367-3786-1999-4781-2348-5964-3478-5577-5326 95-454 268-3235 384-6180 343-8679 946-12503 2614-16575 287-702 696-1964 909-2805 670-2658 1880-6333 2477-7523 316-631 766-1779 1000-2550 653-2151 2241-4959 2854-5048 521-76 1216 593 3958 3811 1690 1983 2948 4730 3811 8326 382 1588 1687 1757 1396 181-538-2913-834-4072-1855-7270-649-2034-1324-3870-1500-4081-175-210-664-1152-1085-2092-1769-3941-2938-4505-5703-2751-879 558-1828 1016-2108 1017-281 2-1887 232-3570 512-6465 1074-8825 584-10174-2115-1174-2349-175-4711 2744-6484 851-517 2260-1479 3131-2139 871-659 1957-1280 2414-1381 457-100 1527-562 2378-1026 850-463 3038-1497 4862-2296 4720-2069 5067-2486 2287-2746-1705-159-3893 672-5602 2128-281 239-1289 864-2240 1388l-1729 954-8343 127c-10884 165-12017-119-13559-3398-583-1242-943-1485-2562-1733-1929-295-3097-1164-3943-2934-945-1976-781-2173 1853-2231 1079-23 2632-121 3450-216 938-109 1928-54 2678 148 808 218 2777 300 6137 257 12415-159 15835 237 15835 1836 0 1032 1391 2410 2718 2693 2011 429 2400-96 1144-1542-2301-2649-1891-3336 1761-2952 1404 147 7007 203 13421 134 7276-78 11100-31 11272 141 409 409-373 1987-1426 2881-1249 1058-1052 1648 482 1449 1434-185 2860-1313 3661-2894 345-680 830-1345 1079-1478 640-342 28646-319 29064 25 1677 1377-1516 4789-4481 4789-938 0-1338 308-1947 1498-1665 3259-1924 3326-13084 3401l-9366 63-1598-1091c-879-600-2781-1666-4226-2368l-2628-1278-1873 206c-1031 114-1914 326-1962 473-108 325 2018 1391 2774 1391 672 0 3879 1419 4925 2180 422 307 1131 638 1576 735 445 98 942 338 1105 534 162 196 1187 701 2277 1121 1089 420 2886 1371 3993 2113s2242 1474 2522 1626c808 438 2100 2595 2282 3809 574 3826-3734 5600-10442 4299-1122-218-2557-480-3188-581-1191-193-2764-861-4383-1863l-941-582-1310 1401c-1496 1599-2764 4076-3559 6955-861 3118-367 4938 748 2753 290-569 1128-1506 1862-2083 735-577 1741-1582 2237-2233 1546-2027 2281-1697 3883 1746 1426 3063 3150 7362 3375 8415 105 491 503 1868 885 3060s958 3315 1280 4718c322 1402 744 3123 938 3825 561 2028 1484 17873 1101 18881-122 319-486 766-810 994-1205 848-2529 1672-2704 1683-99 6-983 517-1964 1136-2737 1726-4251 2567-5210 2895-3748 1280-5626 3943-7042 9983-1102 4704-1143 4845-1406 4845-138 0-360-258-493-574zm1036-13323c340-2591 1227-3763 3874-5125 668-344 1519-967 1892-1385 372-418 1203-1066 1845-1440 1930-1124 3591-2647 3591-3291 0-2642-2620-11155-4238-13771-1292-2089-1342-2443-491-3454 2422-2878 3565-6890 2583-9067-1123-2486-1299-2757-1788-2757-825 0-1090 773-589 1717 1173 2207 1275 3296 485 5202-400 963-934 2324-1188 3026-312 862-880 1663-1756 2476l-1295 1202-94 1870-94 1869 1326 1588c2549 3050 3360 8486 926 6199-755-709-843-692-1440 287-667 1094-673 1573-14 1220 1574-842 2527-35 1835 1553-1155 2649-3168 3480-7555 3119-3342-276-6600-4516-3634-4730 865-63 1084-176 1084-561 0-868-788-1107-1487-451-587 551-638 558-1062 133-1009-1008 40-4728 2020-7167 1717-2115 1494-4396-656-6710-993-1069-1355-1713-1770-3151-287-993-696-2127-908-2519-615-1132-496-2860 278-4029 772-1166 557-2111-447-1968-2592 371-2047 8879 716 11172 972 807 970 1234-16 2719-2776 4182-5451 15355-3872 16177 550 286 1377 902 4587 3418 805 631 2027 1494 2716 1918 1546 951 2568 2253 2751 3504 76 523 374 1751 662 2728 620 2106 771 1919 1223-1521zm-14808-11090c0-1224-1500-1649-2643-749-990 778-897 1355 185 1152 471-88 1131-57 1466 69 738 279 992 158 992-472zm31087 97c58-53-78-299-301-545-223-247-525-764-672-1149-370-974-839-876-1636 342-1078 1645-966 1844 911 1631 876-100 1641-225 1698-279zm-30116-46226c1692-471 9095-3941 9375-4394 875-1416 4717-2086 6407-1117 393 225 1690 978 2882 1673 5373 3132 7044 3800 9945 3980l1658 102-3188-1609c-1753-885-3819-2018-4590-2519-2103-1365-3081-1949-4207-2513-561-281-1193-620-1403-753-3695-2346-5110-1974-12857 3377-1402 969-3317 1846-6512 2985-3302 1177-3668 1676-1051 1433 1009-94 2602-384 3541-645z" transform="matrix(.003922 0 0 -.003922 0 512)"/></svg>