<svg height="512pt" preserveAspectRatio="xMidYMid meet" viewBox="0 0 512 512" width="512pt" xmlns="http://www.w3.org/2000/svg"><g fill="#5856d6" transform="matrix(.003922 0 0 -.003922 0 512)"><path d="m66446 113330c-220-221-460-708-534-1084-443-2260-768-3367-1304-4436-957-1909-917-1958 1459-1795 1980 135 2085 115 2679-526 1494-1611 1702-261 424 2759-416 981-841 2473-945 3315-261 2112-849 2696-1779 1767z"/><path d="m63787 103598c-3309-1957-5266-4510-5765-7519-87-522-424-1268-749-1658-868-1040-1037-3245-323-4212 477-644 497-803 197-1540-651-1602-618-1803 540-3295 2089-2690 4515-4573 5180-4021 1029 854 756 2579-670 4226-3489 4031-3528 12824-63 14142 346 131 1798 300 3226 373 8416 436 9413-589 9068-9314-118-2991-393-3737-2042-5541-1038-1134-1293-2335-722-3401 459-857 1129-546 2944 1366 3163 3332 3204 3413 2704 5280-379 1413-373 1487 150 2152 430 547 492 821 300 1326-133 350-242 896-242 1213s-288 847-641 1178c-375 353-850 1306-1146 2300-1746 5861-7814 9389-11946 6945z"/><path d="m62603 98284c-1373-710-2224-3266-1373-4117 211-211 210-609-2-1518-364-1561 114-3531 1162-4786 397-476 922-1153 1166-1505 1584-2282 5377-2020 7774 537 1484 1584 1544 1715 1814 3917 297 2423 89 2887-1190 2647-1267-238-1319-289-1319-1292 0-1104-1095-1297-1560-275-640 1404 840 2698 2689 2351 1000-188 1086-100 1317 1343 161 1007 111 1119-977 2207l-1146 1146-3668-63c-3133-54-3816-140-4687-592zm1275-3874c1219-896 1718-2678 876-3129-762-407-1280 94-1088 1053 132 660 58 777-649 1023-941 328-1017 666-223 985 725 292 775 295 1084 68z"/><path d="m45650 96663c-528-1962-773-7123-404-8536 618-2371 2666-7730 3434-8987 416-681 1109-1840 1540-2576 950-1622 1297-1661 2273-255 415 596 1166 1479 1670 1962 1162 1114 1175 1836 53 2896-1176 1110-2081 2569-2688 4332-279 812-746 1811-1037 2220-621 871-1408 3762-1667 6121-243 2209-463 2711-1451 3314-1175 716-1417 648-1723-491z"/><path d="m86948 97240c-347-234-680-466-741-515-62-49-255-1149-430-2443-500-3693-980-5598-1686-6695-359-558-788-1443-952-1966-398-1262-2642-4676-3307-5032-828-443-629-1076 768-2441 712-696 1461-1581 1664-1967 567-1078 929-871 2460 1403 1866 2772 2504 4116 3484 7331 449 1473 924 3030 1057 3461 354 1153 275 5368-132 7072-533 2230-985 2601-2185 1792z"/><path d="m66734 83199c-1261-57-2023-203-2082-399-52-169-161-614-243-989-200-917-1284-2163-2412-2773-509-275-1232-745-1608-1045-670-535-706-537-1912-103-2373 855-2766 823-3487-281-955-1461-1518-3059-1335-3787 200-796 4645-3105 7668-3983l1988-578 568 712c1883 2362 2542-3308 970-8345-1368-4383-3100-5206-10968-5213-10263-9-13416-2136-12072-8142 394-1762 1359-2872 3548-4081 930-514 2007-1193 2393-1510 397-326 1228-645 1912-734 666-87 1790-368 2498-625 1352-490 3894-856 8785-1265 1613-135 3392-364 3953-509 3008-778 3703-885 3975-613 450 450 510 7218 70 7920-588 939-3265 835-4537-176-2081-1654-4312-1514-6621 416-1732 1448-2905 1817-5382 1691-2013-102-2400-51-3143 418-1496 945-976 1152 3036 1213 5746 87 8393 983 10303 3487 715 937 1661 1238 1661 527 0-1788-2815-4263-5334-4689-1199-203-1226-578-122-1651 1280-1243 2143-1285 4564-222 3085 1356 6645 1151 7650-440 929-1472 1507-1511 3797-254 2499 1372 2794 2294 734 2294-1445 0-4303 2127-5187 3861-991 1942-317 2391 1101 735 1073-1254 2401-2170 4110-2835 1283-500 1524-519 9661-736 105-3 191-165 191-360 0-521-1792-1149-3697-1296-1770-136-3063-668-4973-2046-1897-1370-3188-1913-4549-1913-1889 0-1929-111-1755-4791 215-5737 190-5715 3672-3445 1228 800 3430 2064 4895 2808s2789 1450 2941 1569c153 119 1254 732 2446 1361 6489 3427 8442 5871 7622 9535-408 1822-1016 2579-2657 3304-2310 1022-3222 1141-8830 1148-6581 8-8233 374-9911 2192-931 1008-2026 3742-2038 5089-3 265-166 1245-364 2176-624 2945 928 6408 1816 4054 368-976 707-977 3360-9 3118 1139 6800 3138 7640 4150 608 732-817 2888-2664 4030l-891 550-1647-540c-2096-688-2039-694-3152 288-517 456-1263 1061-1659 1344-560 402-786 852-1022 2040-341 1715-110 1612-3274 1466z"/><path d="m80325 71605c-2839-1781-6245-3122-9218-3630-1825-311-2117-3687-566-6538 1380-2535 1754-2429 4223 1195 3979 5839 3700 5832 9501 242 1407-1356 4569-3328 6515-4063 1052-398 2576-1021 3387-1385 2052-922 10511-1065 10511-178 0 431-213 529-1383 637-2288 211-1804 809 1829 2259 1767 706 444 1652-1566 1120-3742-990-8922 456-12579 3512-859 718-2119 1587-2802 1933-1705 864-3108 2192-4043 3826-1432 2504-1495 2522-3809 1070z"/><path d="m53210 71485c-674-674 475-2852 2606-4938 936-915 2072-2292 2525-3060 2524-4278 4354-4847 5042-1566 79 375 308 1058 510 1519 906 2067 323 4645-1051 4645-1119 0-5565 1572-7296 2580-1741 1013-2039 1117-2336 820z"/><path d="m62135 38335c-984-984 1925-3714 5145-4831 1611-558 2083-236 2076 1416-6 1450-489 2119-1782 2466-3817 1025-5134 1254-5439 949z"/><path d="m64170 30944c-238-2811-206-6296 119-13000 286-5897 286-5899-276-6659-1238-1674-797-1988 2670-1899 3677 95 3887 218 3156 1834-559 1235-558 1987 3 7905 140 1473 261 4146 269 5941 10 2455 114 3458 417 4044 619 1196 306 1925-979 2279-595 164-1904 570-2909 902-2419 799-2282 874-2470-1347z"/></g></svg>